# xmcd
#
# Track frame offsets: 
#        150
#        24320
#        47963
#        72048
#        94143
#        118006
#        141484
#        169254
#        191636
#        216976
#
# Disc length: 3208 seconds
#
# Revision: 0
# Processed by: cddbd v1.5.2PL0 Copyright (c) Steve Scherf et al.
# Submitted via: ExactAudioCopy v1.0b3
#
DISCID=960c860a
DTITLE=Manh Quynh - Ha Buon
DYEAR=1998
DGENRE=
TTITLE0=Ha buon
TTITLE1=Mua ve sau
TTITLE2=Tinh dau muon thuo
TTITLE3=Trang nhat ky
TTITLE4=Vung la me bay
TTITLE5=Bai ca ky niem
TTITLE6=Hoa trinh nu
TTITLE7=Phuong buon
TTITLE8=Ba thang ta tu
TTITLE9=Nhat ky doi toi
EXTD=
EXTT0=
EXTT1=
EXTT2=
EXTT3=
EXTT4=
EXTT5=
EXTT6=
EXTT7=
EXTT8=
EXTT9=
PLAYORDER=
